<svg xmlns="http://www.w3.org/2000/svg" width="190" height="340"><g fill="#E64A0E"><path d="M81.971 198.31c-4.751-3.544-9.616-7.146-14.574-10.825l-11.185-8.302c-8.31 6.334-16.92 13.662-25.922 22.7-19.516 19.682-27.947 41.618-27.808 61.646.368 34.081 21.067 58.899 33.588 71.937 2.961 3.002 6.846 4.535 10.716 4.535 3.888 0 7.769-1.533 10.724-4.535 5.923-6.042 5.923-15.832 0-21.852-10.378-10.3-25.066-30.441-24.698-50.085.117-11.649 4.013-24.383 18.917-39.778 10.2-10.578 20.214-18.52 30.242-25.441zm28.215-54.434c8.934 6.623 17.6 13.085 25.669 19.354 7.818-5.87 15.825-12.573 24.085-20.847 20.096-20.304 29-42.292 28.901-62.62-.405-34.591-22.599-59.168-36.325-73.476-5.938-6.02-15.521-6.02-21.438.022-5.931 6.035-5.931 15.81 0 21.852 12.596 12.535 27.853 32.369 27.44 51.602-.117 11.41-4.207 24.457-20.039 40.792-9.139 9.541-18.528 16.77-28.293 23.321zm43.565 53.886c-18.036-17.296-46.991-37.654-76.734-59.948-14.901-11.148-26.817-21.493-34.376-31.565-7.576-10.167-11.144-19.294-11.22-31.049 0-4.009.458-8.425 1.542-13.318 1.82-8.349-3.344-16.604-11.507-18.451-8.17-1.878-16.291 3.379-18.091 11.718-1.502 6.844-2.279 13.533-2.279 20.051-.097 19.127 6.895 36.054 17.547 49.935 10.648 14.007 24.641 25.718 40.416 37.563 30.012 22.43 59.007 43.118 73.882 57.517 9.285 8.571 26.727 30.312 26.193 50.939 0 3.604-.442 7.304-1.464 11.185-2.192 8.251 2.612 16.726 10.71 18.948 1.328.346 2.652.532 3.966.532 6.687 0 12.796-4.541 14.612-11.439 1.72-6.495 2.518-12.95 2.504-19.226-.499-36.415-24.309-62.065-35.701-73.392zM56.096 68.961c.675 0 1.37-.1 2.057-.279l59.435-16.018c4.184-1.141 6.684-5.465 5.547-9.654-1.129-4.204-5.453-6.681-9.646-5.555l-59.443 16.026c-4.185 1.134-6.684 5.458-5.547 9.646.942 3.515 4.128 5.834 7.597 5.834zm12.419 157.732c-4.29.675-7.236 4.689-6.557 9.001.6 3.888 3.956 6.648 7.769 6.648.406 0 .811-.029 1.208-.089l38.875-6.035c4.293-.676 7.24-4.707 6.563-9.002-.663-4.286-4.694-7.228-8.987-6.567l-38.871 6.044zm74.94 56.592c-1.021-4.232-5.281-6.823-9.504-5.809l-60.496 14.607c-4.216 1.027-6.828 5.268-5.803 9.502.871 3.605 4.098 6.028 7.649 6.028.604 0 1.224-.073 1.846-.218l60.5-14.607c4.221-1.028 6.83-5.282 5.808-9.503zm-91.289-190.744c.732 3.751 4.032 6.372 7.717 6.372.493 0 .994-.038 1.494-.144l74.561-14.262c4.279-.812 7.078-4.939 6.26-9.203-.824-4.28-4.942-7.071-9.221-6.255l-74.561 14.272c-4.26.812-7.057 4.94-6.25 9.22zm77.492 18.314c-.488-4.322-4.391-7.424-8.701-6.949l-38.129 4.276c-4.328.496-7.428 4.4-6.955 8.708.45 4.023 3.881 7.005 7.84 7.005.292 0 .575-.015.867-.055l38.127-4.277c4.324-.495 7.439-4.399 6.951-8.708zm9.635 141.608c-.886-4.241-5.067-6.951-9.327-6.05l-75.499 15.995c-4.256.903-6.97 5.084-6.069 9.348.784 3.691 4.05 6.23 7.683 6.23.548 0 1.101-.061 1.647-.165l75.506-16.02c4.25-.9 6.975-5.073 6.059-9.338z"/></g></svg>